<?xml version="1.0" encoding="UTF-8" standalone="no"?>
<svg xmlns="http://www.w3.org/2000/svg" width="400" height="400" viewBox="0 0 400 400">
  <defs>
    <linearGradient id="gradAI" x1="0%" y1="0%" x2="100%" y2="100%">
      <stop offset="0%" style="stop-color:#2dd4bf;stop-opacity:0.9" />
      <stop offset="100%" style="stop-color:#38bdf8;stop-opacity:0.9" />
    </linearGradient>
  </defs>
  
  <!-- Brain outline -->
  <path d="M200,50 C260,50 320,90 350,150 C380,210 380,260 350,320 C320,380 260,390 200,390 C140,390 80,380 50,320 C20,260 20,210 50,150 C80,90 140,50 200,50 Z" fill="none" stroke="#0f172a" stroke-width="5" />
  
  <!-- Circuit pattern inside -->
  <g fill="none" stroke="url(#gradAI)" stroke-width="3">
    <path d="M100,150 L300,150" />
    <path d="M100,250 L300,250" />
    <path d="M150,100 L150,300" />
    <path d="M250,100 L250,300" />
    
    <!-- Connection nodes -->
    <circle cx="150" cy="150" r="10" fill="#0f172a" />
    <circle cx="150" cy="250" r="10" fill="#0f172a" />
    <circle cx="250" cy="150" r="10" fill="#0f172a" />
    <circle cx="250" cy="250" r="10" fill="#0f172a" />
    
    <!-- Additional connections -->
    <path d="M150,150 L200,100" />
    <path d="M150,250 L100,300" />
    <path d="M250,150 L300,100" />
    <path d="M250,250 L200,300" />
    
    <!-- Central node -->
    <circle cx="200" cy="200" r="40" fill="url(#gradAI)" />
    <circle cx="200" cy="200" r="30" fill="#0f172a" />
    
    <!-- Pulse animation effect -->
    <circle cx="200" cy="200" r="20" fill="url(#gradAI)" opacity="0.5">
      <animate attributeName="r" values="20;35;20" dur="2s" repeatCount="indefinite" />
      <animate attributeName="opacity" values="0.5;0.2;0.5" dur="2s" repeatCount="indefinite" />
    </circle>
  </g>
  
  <!-- Circuit additional details -->
  <g fill="none" stroke="#22d3ee" stroke-width="2" opacity="0.6">
    <path d="M100,180 L140,180" />
    <path d="M100,220 L140,220" />
    <path d="M260,180 L300,180" />
    <path d="M260,220 L300,220" />
    <path d="M180,100 L180,140" />
    <path d="M220,100 L220,140" />
    <path d="M180,260 L180,300" />
    <path d="M220,260 L220,300" />
    
    <circle cx="140" cy="180" r="5" fill="#22d3ee" />
    <circle cx="140" cy="220" r="5" fill="#22d3ee" />
    <circle cx="260" cy="180" r="5" fill="#22d3ee" />
    <circle cx="260" cy="220" r="5" fill="#22d3ee" />
    <circle cx="180" cy="140" r="5" fill="#22d3ee" />
    <circle cx="220" cy="140" r="5" fill="#22d3ee" />
    <circle cx="180" cy="260" r="5" fill="#22d3ee" />
    <circle cx="220" cy="260" r="5" fill="#22d3ee" />
  </g>
</svg>
