<?xml version="1.0" encoding="UTF-8" standalone="no"?>
<svg xmlns="http://www.w3.org/2000/svg" width="400" height="400" viewBox="0 0 400 400">
  <defs>
    <linearGradient id="blobGrad" x1="0%" y1="0%" x2="100%" y2="100%">
      <stop offset="0%" style="stop-color:#2dd4bf;stop-opacity:0.7" />
      <stop offset="100%" style="stop-color:#38bdf8;stop-opacity:0.7" />
    </linearGradient>
  </defs>
  
  <!-- Base shape for Finance illustration -->
  <path d="M200,50 C250,50 300,70 330,120 C360,170 360,230 330,280 C300,330 250,350 200,350 C150,350 100,330 70,280 C40,230 40,170 70,120 C100,70 150,50 200,50 Z" fill="url(#blobGrad)" />
  
  <!-- Financial graph -->
  <g transform="translate(100, 180) scale(2)">
    <!-- Graph lines -->
    <path d="M0,0 L150,0" stroke="#0f172a" stroke-width="3" stroke-linecap="round" />
    <path d="M0,-80 L0,30" stroke="#0f172a" stroke-width="3" stroke-linecap="round" />
    
    <!-- Graph ticks -->
    <path d="M0,-20 L-5,-20" stroke="#0f172a" stroke-width="2" />
    <path d="M0,-40 L-5,-40" stroke="#0f172a" stroke-width="2" />
    <path d="M0,-60 L-5,-60" stroke="#0f172a" stroke-width="2" />
    
    <path d="M30,0 L30,5" stroke="#0f172a" stroke-width="2" />
    <path d="M60,0 L60,5" stroke="#0f172a" stroke-width="2" />
    <path d="M90,0 L90,5" stroke="#0f172a" stroke-width="2" />
    <path d="M120,0 L120,5" stroke="#0f172a" stroke-width="2" />
    
    <!-- Graph line -->
    <path d="M0,-10 L30,-25 L60,-15 L90,-40 L120,-60" stroke="#f1f5f9" stroke-width="4" fill="none" stroke-linecap="round" stroke-linejoin="round" />
    
    <!-- Data points -->
    <circle cx="0" cy="-10" r="5" fill="#2dd4bf" />
    <circle cx="30" cy="-25" r="5" fill="#2dd4bf" />
    <circle cx="60" cy="-15" r="5" fill="#2dd4bf" />
    <circle cx="90" cy="-40" r="5" fill="#2dd4bf" />
    <circle cx="120" cy="-60" r="5" fill="#2dd4bf" />
  </g>
</svg>
