<?xml version="1.0" encoding="UTF-8" standalone="no"?>
<svg xmlns="http://www.w3.org/2000/svg" width="400" height="400" viewBox="0 0 400 400">
  <defs>
    <linearGradient id="blobGrad" x1="0%" y1="0%" x2="100%" y2="100%">
      <stop offset="0%" style="stop-color:#2dd4bf;stop-opacity:0.7" />
      <stop offset="100%" style="stop-color:#22d3ee;stop-opacity:0.7" />
    </linearGradient>
  </defs>
  
  <!-- Base shape for RH illustration -->
  <path d="M200,50 C260,50 320,80 350,130 C380,180 380,250 350,300 C320,350 260,380 200,380 C140,380 80,350 50,300 C20,250 20,180 50,130 C80,80 140,50 200,50 Z" fill="url(#blobGrad)" />
  
  <!-- Stylized people figures -->
  <g transform="translate(200, 200) scale(0.8)">
    <!-- Person 1 -->
    <circle cx="-60" cy="-50" r="20" fill="#0f172a" />
    <path d="M-80,-10 L-40,-10 L-40,60 L-80,60 Z" fill="#0f172a" />
    <path d="M-80,-10 L-85,40 L-95,40 L-90,-10 Z" fill="#0f172a" />
    <path d="M-40,-10 L-35,40 L-25,40 L-30,-10 Z" fill="#0f172a" />
    
    <!-- Person 2 (center) -->
    <circle cx="0" cy="-60" r="25" fill="#0f172a" />
    <path d="M-25,-15 L25,-15 L25,70 L-25,70 Z" fill="#0f172a" />
    <path d="M-25,-15 L-30,50 L-45,50 L-40,-15 Z" fill="#0f172a" />
    <path d="M25,-15 L30,50 L45,50 L40,-15 Z" fill="#0f172a" />
    
    <!-- Person 3 -->
    <circle cx="60" cy="-50" r="20" fill="#0f172a" />
    <path d="M40,-10 L80,-10 L80,60 L40,60 Z" fill="#0f172a" />
    <path d="M40,-10 L35,40 L25,40 L30,-10 Z" fill="#0f172a" />
    <path d="M80,-10 L85,40 L95,40 L90,-10 Z" fill="#0f172a" />
  </g>
</svg>
